<?xml version="1.0" encoding="UTF-8"?>
<svg width="39px" height="39px" viewBox="0 0 39 39" version="1.1" xmlns="http://www.w3.org/2000/svg" xmlns:xlink="http://www.w3.org/1999/xlink">
    <!-- Generator: Sketch 50.2 (55047) - http://www.bohemiancoding.com/sketch -->
    <title>Github_White</title>
    <desc>Created with Sketch.</desc>
    <defs></defs>
    <g id="Page-1" stroke="none" stroke-width="1" fill="none" fill-rule="evenodd">
        <g id="Roadmap-3rd-party" transform="translate(-708.000000, -4950.000000)">
            <g id="FOOTER" transform="translate(215.000000, 4599.000000)">
                <g id="Github" transform="translate(493.000000, 351.000000)">
                    <path d="M19.5351322,0.143771869 C8.78692562,0.143771869 0.071231405,8.85873261 0.071231405,19.6100317 C0.071231405,28.2108775 5.6482314,35.5077834 13.3818347,38.0818157 C14.3545785,38.2620141 14.7117025,37.6595261 14.7117025,37.1453644 C14.7117025,36.6811682 14.6936529,35.1477091 14.6852727,33.5210883 C9.27039669,34.6986637 8.12779339,31.2242843 8.12779339,31.2242843 C7.24239669,28.9742223 5.96667769,28.3759251 5.96667769,28.3759251 C4.20071901,27.1677256 6.09979339,27.1925472 6.09979339,27.1925472 C8.05430579,27.3295495 9.08345455,29.1985838 9.08345455,29.1985838 C10.819438,32.1745971 13.6367851,31.3142223 14.7474793,30.8168233 C14.9221736,29.5589806 15.426595,28.6995729 15.9832314,28.2137788 C11.6600331,27.7215374 7.11540496,26.0523653 7.11540496,18.5933131 C7.11540496,16.4680039 7.8757438,14.7314589 9.12084298,13.368205 C8.91875207,12.8775754 8.25252893,10.8979722 9.30939669,8.21659457 C9.30939669,8.21659457 10.9438512,7.69340681 14.6633554,10.2119934 C16.2159421,9.78067778 17.8810165,9.56437526 19.5351322,9.55696101 C21.1892479,9.56437526 22.8556116,9.78067778 24.4110992,10.2119934 C28.1260909,7.69340681 29.7582893,8.21659457 29.7582893,8.21659457 C30.8177355,10.8979722 30.1511901,12.8775754 29.9490992,13.368205 C31.1970992,14.7314589 31.952281,16.4680039 31.952281,18.5933131 C31.952281,26.0700951 27.3989504,27.7163797 23.0647934,28.1983056 C23.7629256,28.8024053 24.3849917,29.9870726 24.3849917,31.8032401 C24.3849917,34.407574 24.3624298,36.5038711 24.3624298,37.1453644 C24.3624298,37.6633944 24.7127851,38.2703954 25.6993884,38.0792368 C33.4288017,35.5023033 38.9987107,28.2079763 38.9987107,19.6100317 C38.9987107,8.85873261 30.2843058,0.143771869 19.5351322,0.143771869" id="Fill-51" fill="#23245B"></path>
                    <path d="M7.44319835,28.0932167 C7.40033058,28.1902466 7.24819835,28.2189365 7.10960331,28.1525307 C6.96842975,28.089026 6.8891405,27.9571814 6.93490909,27.8601515 C6.97680992,27.7605428 7.12926446,27.7331423 7.2701157,27.7992258 C7.41161157,27.8630528 7.49219008,27.9961868 7.44319835,28.0932167" id="Fill-52" fill="#2C2F31"></path>
                    <path d="M8.23157851,28.9726106 C8.13875207,29.0586803 7.95728926,29.0187078 7.83416529,28.8826725 C7.70685124,28.7469596 7.683,28.5654718 7.7771157,28.4781127 C7.87284298,28.392043 8.04882645,28.4323378 8.17646281,28.5680507 C8.30377686,28.7053754 8.32859504,28.8855738 8.23157851,28.9726106" id="Fill-53" fill="#2C2F31"></path>
                    <path d="M8.99900826,30.0937732 C8.87975207,30.1766194 8.68475207,30.098931 8.56420661,29.9258245 C8.44495041,29.752718 8.44495041,29.5451192 8.56678512,29.4619507 C8.68765289,29.3787822 8.87975207,29.4535694 9.00190909,29.6253864 C9.12084298,29.8010718 9.12084298,30.008993 8.99900826,30.0937732" id="Fill-54" fill="#2C2F31"></path>
                    <path d="M10.0503967,31.1768976 C9.94371074,31.2945585 9.71647934,31.2629674 9.55016529,31.1024328 C9.37998347,30.9454443 9.33260331,30.7226946 9.43961157,30.6050338 C9.54758678,30.4870506 9.77610744,30.5202535 9.94371074,30.6794986 C10.1126033,30.8361648 10.1641736,31.0605262 10.0503967,31.1768976" id="Fill-55" fill="#2C2F31"></path>
                    <path d="M11.5008099,31.805819 C11.4537521,31.9582945 11.2349008,32.0276016 11.014438,31.9628075 C10.7942975,31.8960793 10.6502231,31.7174928 10.6947025,31.5634054 C10.7404711,31.4099628 10.9602893,31.3377545 11.1823636,31.4070616 C11.4021818,31.4734674 11.5465785,31.6507646 11.5008099,31.805819" id="Fill-56" fill="#2C2F31"></path>
                    <path d="M13.093686,31.9225127 C13.0991653,32.0830473 12.9122231,32.2161813 12.6808017,32.2187602 C12.4480909,32.2242403 12.2598595,32.0943298 12.257281,31.9363742 C12.257281,31.7742279 12.4400331,31.6423832 12.6727438,31.6385149 C12.9041653,31.6340019 13.093686,31.7629453 13.093686,31.9225127" id="Fill-57" fill="#2C2F31"></path>
                    <path d="M14.5760083,31.6701061 C14.6037273,31.8267723 14.4428926,31.9876292 14.2130826,32.0301805 C13.9871405,32.0717647 13.7779587,31.9750572 13.7492727,31.8196804 C13.7212314,31.6591459 13.8849669,31.498289 14.1105868,31.4567048 C14.340719,31.4167323 14.5466777,31.510861 14.5760083,31.6701061" id="Fill-58" fill="#2C2F31"></path>
                </g>
            </g>
        </g>
    </g>
</svg>