<svg width="30px" height="28px" viewBox="0 0 30 28" version="1.1" xmlns="http://www.w3.org/2000/svg" xmlns:xlink="http://www.w3.org/1999/xlink">
    <!-- Generator: Sketch 50.2 (55047) - http://www.bohemiancoding.com/sketch -->
    <desc>Created with Sketch.</desc>
    <defs></defs>
    <g id="Page-1" stroke="none" stroke-width="1" fill="none" fill-rule="evenodd">
        <g id="Roadmap-v4" transform="translate(-1208.000000, -4672.000000)">
            <g id="Group-22" transform="translate(1209.000000, 4672.000000)">
                <rect id="Rectangle-3" fill="#23245B" x="0" y="1" width="26" height="26" rx="13"></rect>
                <ellipse id="Oval-4" fill="#FFFFFF" cx="13" cy="14" rx="6" ry="14"></ellipse>
                <ellipse id="Oval-4" fill="#23245B" cx="13" cy="14" rx="5" ry="13"></ellipse>
                <path d="M0.0216126309,14 L27.5,14" id="Line-8" stroke="#FFFFFF" stroke-linecap="square"></path>
                <path d="M2.76286125,5.966695 C5.96302274,6.5611797 9.37540233,6.85842205 13,6.85842205 C16.6459755,6.85842205 20.0772222,6.5576631 23.2937401,5.95614519" id="Line-8" stroke="#FFFFFF" stroke-linecap="square"></path>
                <path d="M2.82248151,21.3709891 C6.00539613,21.9581161 9.39790229,22.2516796 13,22.2516796 C17.2942806,22.2516796 21.2906796,21.834453 24.9891971,21" id="Line-8" stroke="#FFFFFF" stroke-linecap="square" transform="translate(13.905839, 21.625840) scale(1, -1) translate(-13.905839, -21.625840) "></path>
                <rect id="Rectangle-4" stroke="#23245B" fill="#FFFFFF" x="6.5" y="12" width="22" height="11" rx="2"></rect>
                <path d="M12.9856077,20 L11.8891258,20 L11.2457356,17.0459707 L10.5570362,20 L9.48773987,20 L8.5,15.5 L9.55117271,15.5 L10.1130064,18.8088235 L10.1311301,18.8088235 L10.7926439,15.6253824 L11.6988273,15.6253824 L12.3784648,18.8088235 L12.3965885,18.8088235 L12.967484,15.5 L13.9914712,15.5 L12.9856077,20 Z M19.2398721,20 L18.1433902,20 L17.4818763,17.0459707 L16.8113006,20 L15.7420043,20 L14.7542644,15.5 L15.8054371,15.5 L16.3672708,18.8088235 L16.3853945,18.8088235 L17.0469083,15.6253824 L17.9530917,15.6253824 L18.6327292,18.8088235 L18.6508529,18.8088235 L19.2217484,15.5 L20.2457356,15.5 L19.2398721,20 Z M25.4941365,20 L24.3976546,20 L23.7361407,17.0459707 L23.065565,20 L21.9962687,20 L21.0085288,15.5 L22.0597015,15.5 L22.6215352,18.8088235 L22.6396588,18.8088235 L23.3011727,15.6253824 L24.2073561,15.6253824 L24.8869936,18.8088235 L24.9051173,18.8088235 L25.4760128,15.5 L26.5,15.5 L25.4941365,20 Z" id="www" fill="#23245B"></path>
            </g>
        </g>
    </g>
</svg>
