<svg xmlns="http://www.w3.org/2000/svg" width="50" height="48" viewBox="0 0 50 48"><path fill="#FC4500" d="M50.003 23.865c0 1.09-.275 2.083-.823 2.976a5.434 5.434 0 0 1-2.219 2.045c.224.865.335 1.768.335 2.708 0 2.915-.99 5.614-2.971 8.096-1.982 2.483-4.684 4.443-8.106 5.882-3.423 1.439-7.144 2.158-11.162 2.158-4.018 0-7.734-.72-11.147-2.158-3.414-1.439-6.111-3.4-8.092-5.882-1.981-2.482-2.972-5.18-2.972-8.096 0-.884.102-1.767.307-2.651a5.613 5.613 0 0 1-2.288-2.074A5.51 5.51 0 0 1 0 23.865c0-1.542.54-2.863 1.618-3.963 1.08-1.1 2.39-1.65 3.935-1.65 1.581 0 2.93.592 4.046 1.777 4.055-2.859 8.845-4.382 14.37-4.57L27.206.762a.954.954 0 0 1 .418-.593.906.906 0 0 1 .726-.14l10.296 2.284A4.012 4.012 0 0 1 40.153.635 4.046 4.046 0 0 1 42.357 0c1.154 0 2.14.409 2.958 1.227.819.818 1.228 1.81 1.228 2.976s-.41 2.163-1.228 2.99c-.818.828-1.804 1.242-2.958 1.242-1.153 0-2.134-.41-2.943-1.228-.81-.818-1.214-1.81-1.214-2.976l-9.32-2.087-2.902 13.315c5.58.169 10.408 1.673 14.482 4.513 1.079-1.147 2.409-1.72 3.99-1.72 1.544 0 2.856.55 3.934 1.65 1.08 1.1 1.619 2.42 1.619 3.963zm-38.34 5.614c0 1.166.405 2.162 1.214 2.99.81.827 1.79 1.241 2.944 1.241s2.14-.414 2.958-1.241c.818-.828 1.228-1.824 1.228-2.99 0-1.166-.41-2.158-1.228-2.976-.819-.819-1.804-1.228-2.958-1.228-1.135 0-2.111.414-2.93 1.242-.818.827-1.227 1.814-1.227 2.962zm22.602 10.014c.205-.207.307-.451.307-.734 0-.282-.102-.526-.307-.733a.941.941 0 0 0-.697-.282c-.28 0-.521.094-.726.282-.762.79-1.888 1.373-3.376 1.749a18.158 18.158 0 0 1-4.465.564c-1.488 0-2.976-.188-4.464-.564-1.488-.376-2.614-.96-3.376-1.749a1.037 1.037 0 0 0-.726-.282.941.941 0 0 0-.697.282.934.934 0 0 0-.307.72c0 .29.102.54.307.747.8.809 1.902 1.448 3.306 1.918 1.405.47 2.544.748 3.418.832.875.085 1.72.127 2.54.127.818 0 1.664-.042 2.539-.127.874-.084 2.013-.362 3.418-.832 1.404-.47 2.506-1.11 3.306-1.918zm-.083-5.783c1.153 0 2.134-.414 2.943-1.241.81-.828 1.214-1.824 1.214-2.99 0-1.148-.409-2.135-1.228-2.962-.818-.828-1.795-1.242-2.93-1.242-1.153 0-2.139.41-2.957 1.228-.819.818-1.228 1.81-1.228 2.976s.41 2.162 1.228 2.99c.818.827 1.804 1.241 2.958 1.241z"/></svg>