<svg xmlns="http://www.w3.org/2000/svg" width="50" height="42" viewBox="0 0 50 42"><path fill="#12100E" d="M0 0h50.004v41.67H0V0zm13.218 14.107v12.654c.078.457-.065.923-.384 1.256l-2.985 3.648v.481h8.463v-.48l-2.985-3.649a1.517 1.517 0 0 1-.41-1.256V15.817l7.427 16.33h.862l6.38-16.33v13.015c0 .348 0 .414-.225.642l-2.295 2.245v.48h11.142v-.48l-2.215-2.192a.67.67 0 0 1-.253-.641V12.784a.67.67 0 0 1 .253-.641L38.26 9.95v-.48h-7.853l-5.597 14.07-6.367-14.07h-8.237v.48l2.653 3.22c.26.237.394.585.358.936z"/></svg>