<svg xmlns="http://www.w3.org/2000/svg" width="50" height="40" viewBox="0 0 50 40"><path fill="#4990C2" d="M50 4.7a21.186 21.186 0 0 1-5.14 5.165c.022.289.032.721.032 1.299 0 2.68-.402 5.355-1.205 8.025-.804 2.67-2.026 5.231-3.665 7.684a30.46 30.46 0 0 1-5.853 6.51c-2.263 1.886-4.992 3.391-8.185 4.515-3.194 1.124-6.61 1.685-10.248 1.685C10.004 39.583 4.759 38.09 0 35.1c.74.083 1.565.124 2.475.124 4.759 0 9-1.423 12.722-4.268-2.221-.04-4.21-.706-5.965-1.994-1.755-1.289-2.96-2.933-3.617-4.933.698.103 1.344.155 1.936.155.91 0 1.808-.113 2.696-.34-2.368-.474-4.33-1.624-5.885-3.448C2.808 18.57 2.03 16.452 2.03 14.04v-.124a10.366 10.366 0 0 0 4.632 1.268 10.076 10.076 0 0 1-3.33-3.556 9.539 9.539 0 0 1-1.238-4.763c0-1.814.465-3.494 1.396-5.04 2.56 3.071 5.673 5.53 9.343 7.375 3.67 1.845 7.598 2.87 11.786 3.077a10.826 10.826 0 0 1-.254-2.288c0-2.763 1-5.118 2.999-7.067C29.362.974 31.779 0 34.613 0c2.961 0 5.457 1.051 7.487 3.154A20.413 20.413 0 0 0 48.604.742c-.783 2.371-2.284 4.206-4.505 5.505C46.066 6.04 48.033 5.525 50 4.7z"/></svg>