<svg xmlns="http://www.w3.org/2000/svg" width="50" height="50" viewBox="0 0 50 50"><linearGradient id="icon-instagram-a" x1="0%" y1="100%" y2="0%"><stop offset="0%" stop-color="#FED721"/><stop offset="50.434%" stop-color="#F40C02"/><stop offset="100%" stop-color="#B800B4"/></linearGradient><path fill="url(#icon-instagram-a)" d="M33.333 25c0-2.3-.813-4.264-2.441-5.892C29.264 17.48 27.3 16.667 25 16.667c-2.3 0-4.264.813-5.892 2.441C17.48 20.736 16.667 22.7 16.667 25c0 2.3.813 4.264 2.441 5.892C20.736 32.52 22.7 33.333 25 33.333c2.3 0 4.264-.813 5.892-2.441C32.52 29.264 33.333 27.3 33.333 25zm4.493 0c0 3.559-1.248 6.586-3.744 9.082-2.496 2.496-5.523 3.744-9.082 3.744-3.559 0-6.586-1.248-9.082-3.744-2.496-2.496-3.744-5.523-3.744-9.082 0-3.559 1.248-6.586 3.744-9.082 2.496-2.496 5.523-3.744 9.082-3.744 3.559 0 6.586 1.248 9.082 3.744 2.496 2.496 3.744 5.523 3.744 9.082zm3.515-13.346c0 .824-.293 1.53-.879 2.116a2.884 2.884 0 0 1-2.116.878c-.824 0-1.53-.293-2.116-.878a2.884 2.884 0 0 1-.878-2.116c0-.825.293-1.53.878-2.116a2.884 2.884 0 0 1 2.116-.88c.825 0 1.53.294 2.116.88.586.586.88 1.291.88 2.116zM25 4.492c-.152 0-.982-.005-2.49-.016-1.508-.01-2.653-.01-3.434 0-.782.01-1.829.043-3.142.098-1.313.054-2.43.162-3.353.325-.922.163-1.698.364-2.327.602A8.445 8.445 0 0 0 7.389 7.39a8.445 8.445 0 0 0-1.888 2.865c-.238.63-.44 1.405-.602 2.327-.163.923-.271 2.04-.325 3.353-.055 1.313-.087 2.36-.098 3.142-.01.78-.01 1.926 0 3.434L4.492 25c0 .152-.005.982-.016 2.49-.01 1.508-.01 2.653 0 3.434.01.782.043 1.829.098 3.142.054 1.313.162 2.43.325 3.353.163.922.364 1.698.602 2.327a8.445 8.445 0 0 0 1.888 2.865 8.445 8.445 0 0 0 2.865 1.888c.63.238 1.405.44 2.327.602.923.163 2.04.271 3.353.325 1.313.055 2.36.087 3.142.098.78.01 1.926.01 3.434 0l2.49-.016c.152 0 .982.005 2.49.016 1.508.01 2.653.01 3.434 0 .782-.01 1.829-.043 3.142-.098 1.313-.054 2.43-.162 3.353-.325.922-.163 1.698-.364 2.327-.602a8.445 8.445 0 0 0 2.865-1.888 8.445 8.445 0 0 0 1.888-2.865c.238-.63.44-1.405.602-2.327.163-.923.271-2.04.325-3.353.055-1.313.087-2.36.098-3.142.01-.78.01-1.926 0-3.434L45.508 25c0-.152.005-.982.016-2.49.01-1.508.01-2.653 0-3.434-.01-.782-.043-1.829-.098-3.142-.054-1.313-.162-2.43-.325-3.353-.163-.922-.364-1.698-.602-2.327a8.445 8.445 0 0 0-1.888-2.865 8.445 8.445 0 0 0-2.865-1.888c-.63-.238-1.405-.44-2.327-.602-.923-.163-2.04-.271-3.353-.325-1.313-.055-2.36-.087-3.142-.098-.78-.01-1.926-.01-3.434 0L25 4.492zM50 25c0 4.97-.054 8.41-.163 10.319-.217 4.514-1.562 8.008-4.036 10.482-2.474 2.474-5.968 3.82-10.482 4.036-1.91.109-5.35.163-10.319.163-4.97 0-8.41-.054-10.319-.163-4.514-.217-8.008-1.562-10.482-4.036C1.725 43.327.38 39.833.163 35.319.054 33.409 0 29.969 0 25c0-4.97.054-8.41.163-10.319.217-4.514 1.562-8.008 4.036-10.482C6.673 1.725 10.167.38 14.681.163 16.591.054 20.031 0 25 0c4.97 0 8.41.054 10.319.163 4.514.217 8.008 1.562 10.482 4.036 2.474 2.474 3.82 5.968 4.036 10.482.109 1.91.163 5.35.163 10.319z"/></svg>
