<svg xmlns="http://www.w3.org/2000/svg" width="50" height="48" viewBox="0 0 50 48"><path d="M25 0c4.536 0 8.719 1.097 12.549 3.292s6.863 5.174 9.098 8.935C48.882 15.988 50 20.096 50 24.55c0 5.349-1.59 10.16-4.769 14.432-3.18 4.273-7.286 7.23-12.32 8.87-.587.107-1.02.033-1.303-.223a1.24 1.24 0 0 1-.423-.959l.016-2.445c.011-1.567.016-3 .016-4.3 0-2.067-.564-3.58-1.692-4.539 1.237-.128 2.349-.32 3.336-.575.988-.256 2.008-.672 3.06-1.247 1.053-.575 1.932-1.284 2.637-2.126.705-.841 1.28-1.96 1.725-3.356.445-1.396.668-3 .668-4.81 0-2.537-.858-4.732-2.572-6.586.803-1.94.716-4.113-.26-6.52-.608-.193-1.487-.075-2.637.35-1.15.427-2.149.896-2.995 1.407l-1.237.767a23.5 23.5 0 0 0-6.25-.83 23.5 23.5 0 0 0-6.25.83 28.961 28.961 0 0 0-1.383-.863c-.576-.34-1.482-.75-2.719-1.23-1.237-.48-2.159-.624-2.766-.432-.977 2.408-1.064 4.582-.26 6.521-1.715 1.854-2.573 4.05-2.573 6.585 0 1.811.223 3.41.668 4.795.445 1.385 1.014 2.504 1.709 3.356.694.853 1.568 1.567 2.62 2.142 1.053.575 2.073.991 3.06 1.247.988.255 2.1.447 3.337.575-.847.767-1.378 1.865-1.595 3.293a6.538 6.538 0 0 1-1.465.479c-.521.107-1.14.16-1.856.16-.716 0-1.427-.23-2.132-.687-.705-.459-1.307-1.125-1.806-1.998a5.196 5.196 0 0 0-1.58-1.662c-.64-.427-1.177-.682-1.61-.768l-.652-.096c-.455 0-.77.048-.944.144-.173.096-.227.219-.162.368.065.15.162.298.293.447.13.15.27.277.423.384l.228.16c.477.213.95.618 1.416 1.215.466.596.808 1.14 1.025 1.63l.326.735c.282.81.76 1.465 1.432 1.966.673.5 1.4.82 2.18.959.782.138 1.536.213 2.263.224.727.01 1.33-.027 1.807-.112l.749-.128c0 .81.005 1.753.016 2.829l.016 1.742c0 .384-.141.703-.423.959-.282.256-.716.33-1.302.224-5.035-1.641-9.142-4.598-12.321-8.87C1.589 34.708 0 29.898 0 24.55c0-4.454 1.118-8.562 3.353-12.323 2.235-3.761 5.268-6.74 9.098-8.935C16.281 1.097 20.464 0 25 0zM9.473 35.258c.065-.149-.011-.277-.228-.383-.217-.064-.358-.043-.423.064-.065.149.01.277.227.383.196.128.337.107.424-.064zm1.009 1.087c.152-.106.13-.277-.065-.511-.217-.192-.391-.224-.521-.096-.152.106-.13.277.065.511.217.213.39.245.52.096zm.976 1.439c.196-.15.196-.352 0-.608-.173-.277-.358-.34-.553-.192-.195.107-.195.299 0 .576.195.277.38.351.553.224zm1.368 1.342c.173-.17.13-.373-.13-.607-.261-.256-.478-.288-.652-.096-.195.17-.152.373.13.607.26.256.478.288.652.096zm1.855.8c.065-.235-.076-.406-.423-.512-.326-.085-.532-.01-.619.224-.086.234.055.394.424.479.325.128.531.064.618-.192zm2.05.16c0-.278-.184-.395-.553-.353-.347 0-.52.118-.52.352 0 .277.184.394.553.352.347 0 .52-.118.52-.352zm1.889-.32c-.044-.235-.239-.33-.586-.288-.347.064-.5.223-.456.48.044.255.239.34.586.255.347-.085.5-.234.456-.448z"/></svg>