<svg xmlns="http://www.w3.org/2000/svg" width="48" height="48" viewBox="0 0 48 48"><path fill="#006087" d="M10.667 5.333c0 2.934-1.867 5.334-5.334 5.334C2.133 10.667 0 8.267 0 5.6 0 2.667 2.133 0 5.333 0s5.334 2.4 5.334 5.333zM0 48h10.667V13.333H0V48zm36.267-34.133c-5.6 0-8.8 3.2-10.134 5.333h-.266l-.534-4.533h-9.6c0 2.933.267 6.4.267 10.4V48h10.667V29.067c0-1.067 0-1.867.266-2.667.8-1.867 2.134-4.267 5.067-4.267 3.733 0 5.333 3.2 5.333 7.467V48H48V28.267c0-9.867-5.067-14.4-11.733-14.4z"/></svg>