<svg xmlns="http://www.w3.org/2000/svg" width="42" height="50" viewBox="0 0 42 50"><path fill="#FD0000" d="M26.54 34.71v5.887c0 1.246-.365 1.87-1.096 1.87-.43 0-.853-.205-1.265-.614v-8.399c.412-.409.834-.614 1.265-.614.731 0 1.097.624 1.097 1.87zm9.504.028v1.283h-2.53v-1.283c0-1.265.421-1.898 1.264-1.898.844 0 1.266.633 1.266 1.898zm-27.16-6.083h3.009v-2.623H3.12v2.623h2.952v15.876h2.811V28.655zm8.098 15.876h2.502V30.748h-2.502v10.547c-.563.78-1.097 1.172-1.603 1.172-.337 0-.534-.196-.59-.586-.02-.056-.029-.382-.029-.977V30.748h-2.502v10.91c0 .91.075 1.59.225 2.036.225.688.769 1.033 1.63 1.033.9 0 1.856-.568 2.869-1.702v1.506zm12.061-4.13v-5.496c0-1.358-.084-2.279-.253-2.762-.319-1.042-.984-1.563-1.996-1.563-.937 0-1.809.503-2.615 1.507v-6.055h-2.502v18.5h2.502v-1.34c.843 1.023 1.715 1.535 2.615 1.535 1.012 0 1.677-.512 1.996-1.535.169-.502.253-1.432.253-2.79zm9.503-.278v-.363h-2.559c0 .949-.018 1.516-.056 1.702-.131.67-.506 1.005-1.124 1.005-.863 0-1.294-.642-1.294-1.926v-2.427h5.033V35.24c0-1.47-.253-2.548-.76-3.237-.73-.948-1.724-1.423-2.98-1.423-1.274 0-2.277.475-3.008 1.423-.525.689-.787 1.767-.787 3.237v4.827c0 1.47.272 2.548.815 3.237.731.948 1.744 1.423 3.037 1.423 1.35 0 2.361-.493 3.036-1.48.338-.501.534-1.004.59-1.506.038-.167.057-.707.057-1.618zM21.452 14.648V8.79c0-1.283-.403-1.925-1.21-1.925-.805 0-1.208.642-1.208 1.925v5.86c0 1.302.403 1.953 1.209 1.953s1.209-.651 1.209-1.954zm20.215 20.955c0 4.352-.244 7.608-.731 9.765a5.29 5.29 0 0 1-1.631 2.763 4.936 4.936 0 0 1-2.868 1.283c-3.449.39-8.65.586-15.604.586-6.953 0-12.155-.195-15.604-.586a5.001 5.001 0 0 1-2.881-1.283A5.091 5.091 0 0 1 .73 45.368C.244 43.285 0 40.03 0 35.603c0-4.353.244-7.608.731-9.766a5.29 5.29 0 0 1 1.63-2.762 5.116 5.116 0 0 1 2.897-1.312c3.43-.372 8.622-.558 15.575-.558 6.954 0 12.155.186 15.604.558a5.16 5.16 0 0 1 2.882 1.312 5.091 5.091 0 0 1 1.617 2.762c.487 2.083.73 5.339.73 9.766zM13.607 0h2.868l-3.401 11.133v7.561h-2.812v-7.561C10 9.756 9.428 7.785 8.547 5.218A239.73 239.73 0 0 1 6.72 0H9.7l1.996 7.338L13.608 0zM24.01 9.291v4.883c0 1.507-.262 2.604-.787 3.293-.712.948-1.706 1.423-2.98 1.423-1.256 0-2.24-.475-2.952-1.423-.525-.707-.787-1.805-.787-3.293V9.291c0-1.488.262-2.576.787-3.264.712-.949 1.696-1.423 2.952-1.423 1.274 0 2.268.474 2.98 1.423.525.688.787 1.776.787 3.264zm9.419-4.52v13.923H30.87V17.16c-.993 1.153-1.958 1.73-2.895 1.73-.863 0-1.416-.345-1.66-1.033-.15-.446-.224-1.144-.224-2.092V4.77h2.558v10.24c0 .614.01.94.028.977.057.409.253.614.59.614.507 0 1.041-.4 1.603-1.2V4.772h2.559z"/></svg>