<?xml version="1.0" encoding="iso-8859-1"?>
<!-- Generator: Adobe Illustrator 18.1.1, SVG Export Plug-In . SVG Version: 6.00 Build 0)  -->
<svg version="1.1" id="Capa_1" xmlns="http://www.w3.org/2000/svg" xmlns:xlink="http://www.w3.org/1999/xlink" x="0px" y="0px"
	 viewBox="0 0 478.165 478.165" style="enable-background:new 0 0 478.165 478.165;" xml:space="preserve">
<g fill="none" fill-rule="evenodd">
	<path id="Wikipedia_2_" d="M477.786,72.778c0,0-74.255,0-98.681,0l-7.252,1.195v9.543c0,1.016,3.526,1.953,4.463,2.65
		c0.936,0.697,3.287,1.136,4.303,1.136l8.926,0.478c10.221,0.478,13.169,2.749,17.234,6.475c3.785,3.805,4.562,10.34,1.435,19.465
		l-87.345,228.124l-3.287-0.976l-55.527-124.921c0.817-1.873,1.295-2.869,1.295-2.869l45.366-93.402
		c5.18-9.802,10.56-18.648,13.05-22.793c4.662-7.511,6.993-8.886,20.023-9.583c2.71,0,3.686-1.235,3.686-3.805v-9.484l-0.797-0.996
		c0,0-54.192-0.219-78.977,0l0.04,0.976v9.543c0,1.016-0.558,1.953,0.339,2.65c0.677,0.837,1.096,1.136,2.072,1.136l3.746,0.478
		c10.201,0.518,14.763,3.427,16.178,5.32c2.351,3.128,3.427,6.635-2.331,20.621l-35.006,76.745l-31.658-71.167
		c-10.34-22.653-12.91-29.666,2.749-31.021l4.204-0.976c3.008,0,2.53-1.195,2.53-3.467v-9.862l-0.398-0.877c0,0-57.898,0-84.316,0
		l-0.418,0.916v9.982c0,2.152,2.291,2.809,6.415,3.467c14.564,2.092,14.325,3.766,28.789,35.285
		c2.112,4.722,8.587,18.967,8.587,18.967l32.934,71.187c0,0,3.726,9.125,9.603,23.291l-47.896,105.057l-2.769-0.877
		c0,0-74.414-172.159-95.892-229.818c-2.211-5.977-3.287-10.36-3.287-13.03c0-5.838,4.881-9.065,14.445-9.464l14.664-0.498
		c3.008,0,7.93-1.235,7.93-3.965v-9.404l-4.403-0.956c0,0-91.09-0.139-109.5,0L0,74.212v9.902c0,1.813,2.351,2.949,6.535,3.467
		c11.376,0.657,18.927,2.59,22.454,5.858c3.646,3.447,7.431,11.854,12.392,24.944c27.016,71.426,84.496,198.657,112.488,271.099
		c8.109,19.665,18.17,22.892,30.543-0.558c12.632-25.681,38.074-83.021,56.722-125.14c17.433,42.078,40.983,99.06,52.518,124.781
		c8.966,20.601,19.306,22.792,29.985,0.777c27.534-67.242,107.886-269.745,107.886-269.745c3.626-9.882,8.348-17.553,14.524-23.111
		c6.356-5.439,15.461-8.647,28.451-9.165c2.67,0,3.666-1.375,3.666-3.805v-9.523L477.786,72.778z" fill="#23245B"/>
</g>
<g>
</g>
<g>
</g>
<g>
</g>
<g>
</g>
<g>
</g>
<g>
</g>
<g>
</g>
<g>
</g>
<g>
</g>
<g>
</g>
<g>
</g>
<g>
</g>
<g>
</g>
<g>
</g>
<g>
</g>
</svg>
