<?xml version="1.0" encoding="UTF-8"?>
<svg width="30px" height="30px" viewBox="0 0 30 30" version="1.1" xmlns="http://www.w3.org/2000/svg" xmlns:xlink="http://www.w3.org/1999/xlink">
    <!-- Generator: Sketch 50.2 (55047) - http://www.bohemiancoding.com/sketch -->
    <title>SVG/youtube</title>
    <desc>Created with Sketch.</desc>
    <defs></defs>
    <g id="Page-1" stroke="none" stroke-width="1" fill="none" fill-rule="evenodd">
        <g id="Roadmap-3rd-party" transform="translate(-1248.000000, -1830.000000)">
            <g id="singularity-development" transform="translate(215.000000, 1282.000000)">
                <g id="Group-9" transform="translate(1033.000000, 548.000000)">
                    <g id="Youtube" transform="translate(1.000000, 4.000000)">
                        <path d="M27.72,4.34117719 C27.72,4.34117719 27.446125,2.36954059 26.607,1.50130515 C25.542125,0.361243169 24.348625,0.355878171 23.80175,0.289709868 C19.8835,0 14.006125,0 14.006125,0 L13.993875,0 C13.993875,0 8.1165,0 4.19825,0.289709868 C3.6505,0.355878171 2.457875,0.361243169 1.392125,1.50130515 C0.553,2.36954059 0.28,4.34117719 0.28,4.34117719 C0.28,4.34117719 0,6.6570678 0,8.97206425 L0,11.1430999 C0,13.4589905 0.28,15.773987 0.28,15.773987 C0.28,15.773987 0.553,17.7456236 1.392125,18.613859 C2.457875,19.753921 3.857,19.7181544 4.48,19.8370785 C6.72,20.0570434 14,20.125 14,20.125 C14,20.125 19.8835,20.1160583 23.80175,19.8263485 C24.348625,19.759286 25.542125,19.753921 26.607,18.613859 C27.446125,17.7456236 27.72,15.773987 27.72,15.773987 C27.72,15.773987 28,13.4589905 28,11.1430999 L28,8.97206425 C28,6.6570678 27.72,4.34117719 27.72,4.34117719 L27.72,4.34117719 Z" fill="#23245B"></path>
                        <polygon id="Path" fill="#FFFFFF" points="11.109 13.7737371 11.108125 5.73428822 18.673375 9.76787222"></polygon>
                    </g>
                </g>
            </g>
        </g>
    </g>
</svg>